<svg xmlns="http://www.w3.org/2000/svg" viewBox="0 0 512 512" fill="#f59e0b">
  <circle cx="256" cy="256" r="256" fill="#1f2937"/>
  <path d="M364 175.5H148c-8.3 0-15 6.7-15 15v130c0 8.3 6.7 15 15 15h216c8.3 0 15-6.7 15-15v-130c0-8.3-6.7-15-15-15z" fill="#f59e0b"/>
  <path d="M250 225.5h-40c-2.8 0-5 2.2-5 5v50c0 2.8 2.2 5 5 5h40c2.8 0 5-2.2 5-5v-50c0-2.8-2.2-5-5-5zM302 225.5h-40c-2.8 0-5 2.2-5 5v50c0 2.8 2.2 5 5 5h40c2.8 0 5-2.2 5-5v-50c0-2.8-2.2-5-5-5z" fill="#1f2937"/>
  <text x="256" y="335" text-anchor="middle" font-family="Arial, sans-serif" font-size="20" fill="white">ZYNOFLIX</text>
</svg> 